<svg xmlns="http://www.w3.org/2000/svg" viewBox="1169 1296 112 112">
  <defs>
    <style>
      .cls-1 {
        fill: #202024;
      }
    </style>
  </defs>
  <g id="stethoscope-1" transform="translate(1168.5 1295.9)">
    <path id="Path_3" data-name="Path 3" class="cls-1" d="M15.554,12.208a6.054,6.054,0,1,1,6.054-6.054A6.072,6.072,0,0,1,15.554,12.208Zm0-9.081a2.973,2.973,0,0,0-3.027,3.027,3.027,3.027,0,0,0,6.054,0A2.973,2.973,0,0,0,15.554,3.127Z" transform="translate(0.081)"/>
    <path id="Path_4" data-name="Path 4" class="cls-1" d="M51.554,12.208a6.054,6.054,0,1,1,6.054-6.054A6.072,6.072,0,0,1,51.554,12.208Zm0-9.081a2.973,2.973,0,0,0-3.027,3.027,3.027,3.027,0,0,0,6.054,0A2.973,2.973,0,0,0,51.554,3.127Z" transform="translate(0.405)"/>
    <path id="Path_5" data-name="Path 5" class="cls-1" d="M33.8,75.735A33.33,33.33,0,0,1,.5,42.438V15.195A10.593,10.593,0,0,1,11.095,4.6V7.627a7.623,7.623,0,0,0-7.568,7.568V42.438a30.27,30.27,0,0,0,60.541,0V15.195A7.623,7.623,0,0,0,56.5,7.627V4.6A10.593,10.593,0,0,1,67.095,15.195V42.438A33.33,33.33,0,0,1,33.8,75.735Z" transform="translate(0 0.041)"/>
    <path id="Path_6" data-name="Path 6" class="cls-1" d="M39.608,82.695H36.581V75.127H30.527v7.568H27.5V72.1H39.608Z" transform="translate(0.243 0.649)"/>
    <path id="Path_7" data-name="Path 7" class="cls-1" d="M58.436,112.019A26.548,26.548,0,0,1,32,85.482v-2.22h3.027v2.22a23.409,23.409,0,0,0,46.818,0V19.695a10.595,10.595,0,0,1,21.189,0V92.343h-3.027V19.695a7.568,7.568,0,1,0-15.135,0V85.482A26.419,26.419,0,0,1,58.436,112.019Z" transform="translate(0.284 0.081)"/>
    <path id="Path_8" data-name="Path 8" class="cls-1" d="M101.095,111.289a10.595,10.595,0,1,1,10.595-10.595A10.593,10.593,0,0,1,101.095,111.289Zm0-18.162a7.568,7.568,0,1,0,7.568,7.568A7.623,7.623,0,0,0,101.095,93.127Z" transform="translate(0.811 0.811)"/>
    <path id="Path_9" data-name="Path 9" class="cls-1" d="M101.03,103.959a3.33,3.33,0,1,1,3.33-3.33A3.359,3.359,0,0,1,101.03,103.959Zm0-3.632a.3.3,0,1,0,.3.3A.268.268,0,0,0,101.03,100.327Z" transform="translate(0.876 0.876)"/>
    <path id="Path_10" data-name="Path 10" class="cls-1" d="M33.716,66.519A24.287,24.287,0,0,1,9.5,42.3V19.6h3.027V42.3A21.187,21.187,0,0,0,33.716,63.492Z" transform="translate(0.081 0.176)"/>
    <rect id="Rectangle_20" data-name="Rectangle 20" class="cls-1" width="3.027" height="22.703" transform="translate(54.986 19.776)"/>
  </g>
</svg>
