<svg xmlns="http://www.w3.org/2000/svg" viewBox="0 0 130 40">
    <title>Flatiron</title>
    <path fill="#3887f7" d="M15.659,19.25v20l16.929-10v-20Z" transform="translate(1.27 0.75)"/>
    <path fill="#5051db" d="M16.929,0,0,10V30L16.929,20Z"/>
    <path fill="#231f20" d="M57.537,13.551a7.061,7.061,0,1,1,14.119,0,7.061,7.061,0,1,1-14.119,0Zm3.64,0c0,2.532,1.641,3.853,3.42,3.853s3.42-1.294,3.42-3.853S66.375,9.7,64.6,9.7,61.177,10.992,61.177,13.551ZM17.441,16.634c0-2.422,1.778-3.771,4.023-4.1l3.31-.5c.766-.109,1.012-.495,1.012-.962,0-.964-.738-1.762-2.27-1.762A2.394,2.394,0,0,0,20.973,11.3l-3.23-.689c.326-2.058,2.256-4.24,5.747-4.24,4.268,0,5.854,2.422,5.854,5.146v6.659a15.308,15.308,0,0,0,.165,2.147H26.169a9.242,9.242,0,0,1-.137-1.624,4.49,4.49,0,0,1-3.967,2.009C19.193,20.706,17.441,18.752,17.441,16.634Zm5.308-1.927a1.706,1.706,0,0,0-1.67,1.706,1.584,1.584,0,0,0,1.751,1.569c1.533,0,2.956-.743,2.956-3.137v-.606Zm10.2,1.623v-6.3h-2.2V6.781h2.2V2.735h3.611V6.781h2.709v3.247H36.565V15.7c0,1.184.547,1.569,1.588,1.569a5.26,5.26,0,0,0,1.12-.109v3.027a5.976,5.976,0,0,1-2.264.33A4.067,4.067,0,0,1,32.954,16.33Zm49.288,3.991v-7.9c0-1.514-.74-2.7-2.491-2.7a2.544,2.544,0,0,0-2.516,2.808v7.788h-3.64V6.781h3.529V8.459A4.469,4.469,0,0,1,81.01,6.422c3.338,0,4.87,2.395,4.87,5.367v8.532Zm-33.967,0V6.781H51.8V8.72a4.026,4.026,0,0,1,3.519-2.05c.3,0,.887.029,1.161.056v3.687A5.451,5.451,0,0,0,55.39,10.3c-1.86,0-3.475.908-3.475,3.824v6.193Zm-6.7,0V6.781h3.638V20.321Zm-29.866,0v-20h3.64v20Zm-9.271,0V10.036H0V6.788H2.435V4.182A4.061,4.061,0,0,1,6.61,0a9.549,9.549,0,0,1,3,.424V3.451a9.55,9.55,0,0,0-1.978-.2c-1.039,0-1.586.386-1.586,1.569V6.788h3.43v3.248H6.048V20.321ZM41.572,4.773V1.3h3.638V4.773Z" transform="translate(43.8 9.679)"/>
</svg>
