<?xml version="1.0" standalone="no"?>
<!DOCTYPE svg PUBLIC "-//W3C//DTD SVG 20010904//EN"
 "http://www.w3.org/TR/2001/REC-SVG-20010904/DTD/svg10.dtd">
<svg version="1.0" xmlns="http://www.w3.org/2000/svg"
 width="558.000000pt" height="558.000000pt" viewBox="0 0 558.000000 558.000000"
 preserveAspectRatio="xMidYMid meet">
<metadata>
Created by potrace 1.11, written by Peter Selinger 2001-2013
</metadata>
<g transform="translate(0.000000,558.000000) scale(0.100000,-0.100000)"
fill="#000000" stroke="none">
<path d="M0 2790 l0 -2790 2790 0 2790 0 0 2790 0 2790 -2790 0 -2790 0 0
-2790z m1914 1202 l921 -734 3 671 2 671 885 0 885 0 0 -1885 0 -1885 -653 0
-653 0 -206 217 c-114 120 -226 237 -250 261 l-44 43 -250 -261 -249 -260
-667 0 -668 0 0 1956 c0 1481 3 1953 12 1948 6 -4 426 -338 932 -742z"/>
</g>
</svg>
